HIERARCHY
ROOT pelvis
{
	OFFSET 0.00 0.00 0.00
	CHANNELS 6 Xposition Yposition Zposition Xrotation Yrotation Zrotation
	JOINT lfemur
	{
		OFFSET 0.00000 3.26371 0.00000
		CHANNELS 3 Xrotation Yrotation Zrotation
		JOINT ltibia
		{
			OFFSET 0.00000 0.00000 -17.39272
			CHANNELS 3 Xrotation Yrotation Zrotation
			JOINT lfoot
			{
				OFFSET 0.00000 0.00000 -17.72520
				CHANNELS 3 Xrotation Yrotation Zrotation
				JOINT ltoes
				{
					OFFSET 4.21806 0.00000 0.00000
					CHANNELS 3 Xrotation Yrotation Zrotation
				}
			}
		}
	}
	JOINT rfemur
	{
		OFFSET 0.00000 -3.26371 0.00000
		CHANNELS 3 Xrotation Yrotation Zrotation
		JOINT rtibia
		{
			OFFSET 0.00000 0.00000 -17.39272
			CHANNELS 3 Xrotation Yrotation Zrotation
			JOINT rfoot
			{
				OFFSET 0.00000 0.00000 -17.72520
				CHANNELS 3 Xrotation Yrotation Zrotation
				JOINT rtoes
				{
					OFFSET 4.21806 0.00000 0.00000
					CHANNELS 3 Xrotation Yrotation Zrotation
				}
			}
		}
	}
	JOINT thorax
	{
		OFFSET -1.96850 0.00000 6.16593
		CHANNELS 6 Xposition Yposition Zposition Xrotation Yrotation Zrotation
		JOINT head
		{
			OFFSET 0.00000 0.00000 18.21355
			CHANNELS 6 Xposition Yposition Zposition Xrotation Yrotation Zrotation
		}
		JOINT lclavicle
		{
			OFFSET 0.00000 0.00000 15.13875
			CHANNELS 3 Xrotation Yrotation Zrotation
			JOINT lhumerus
			{
				OFFSET 0.00000 7.18963 -1.52650
				CHANNELS 3 Xrotation Yrotation Zrotation
				JOINT lradius
				{
					OFFSET 0.00000 0.00000 -10.12096
					CHANNELS 3 Xrotation Yrotation Zrotation
					JOINT lhand
					{
						OFFSET 0.00000 0.00000 -10.45726
						CHANNELS 3 Xrotation Yrotation Zrotation
					}
				}
			}
		}
		JOINT rclavicle
		{
			OFFSET 0.00000 0.00000 15.13875
			CHANNELS 3 Xrotation Yrotation Zrotation
			JOINT rhumerus
			{
				OFFSET 0.00000 -7.18963 -1.52650
				CHANNELS 3 Xrotation Yrotation Zrotation
				JOINT rradius
				{
					OFFSET 0.00000 0.00000 -10.12096
					CHANNELS 3 Xrotation Yrotation Zrotation
					JOINT rhand
					{
						OFFSET 0.00000 0.00000 -10.45726
						CHANNELS 3 Xrotation Yrotation Zrotation
					}
				}
			}
		}
	}
}
MOTION
Frames: 23
Frame Time: 0.008333
 -46.5765 -6.3411 36.6327 0.2213 -3.8957 2.0293 5.6763 4.4617 -0.3236 -0.0000 18.1416 0.0000 -0.0000 3.4180 6.2797 0.0000 -27.3169 -0.0000 -9.0634 5.9223 -0.7027 -0.0000 16.4316 0.0000 -0.0000 7.4924 -1.8860 0.0000 -33.1632 -0.0000 -49.6207 -6.2971 42.4735 0.2162 3.0078 1.0427 -50.0560 -6.5417 61.3690 0.2300 9.9072 -1.8882 -20.7801 0.0000 -7.5296 34.5546 1.4935 5.7133 0.0000 -24.0873 -36.1634 -1.4789 -0.6335 -0.0000 16.0548 -0.0000 -0.3037 -35.9060 0.7306 0.8048 -0.0000 -29.2998 29.2406 12.0572 1.8820 -0.0000
 -46.5765 -6.3411 36.6327 0.2213 -3.8957 2.0293 5.6763 4.4617 -0.3236 -0.0000 18.1416 0.0000 -0.0000 3.4180 6.2797 0.0000 -27.3169 -0.0000 -9.0634 5.9223 -0.7027 -0.0000 16.4316 0.0000 -0.0000 7.4924 -1.8860 0.0000 -33.1632 -0.0000 -49.6207 -6.2971 42.4735 0.2162 3.0078 1.0427 -50.0560 -6.5417 61.3690 0.2300 9.9072 -1.8882 -20.7801 0.0000 -7.5296 34.5546 1.4935 5.7133 0.0000 -24.0873 -36.1634 -1.4789 -0.6335 -0.0000 16.0548 -0.0000 -0.3037 -35.9060 0.7306 0.8048 -0.0000 -29.2998 29.2406 12.0572 1.8820 -0.0000
 -46.5777 -6.3421 36.6322 0.2271 -3.9062 2.0338 5.6699 4.4554 -0.3467 -0.0000 18.1747 0.0000 0.0000 3.4040 6.2896 0.0000 -27.3133 -0.0000 -9.0671 5.9272 -0.7056 -0.0000 16.4374 0.0000 -0.0000 7.5079 -1.8811 0.0000 -33.2122 -0.0000 -49.6229 -6.2965 42.4702 0.2036 3.0100 1.0472 -50.0737 -6.5308 61.3882 0.2821 10.3048 -1.9953 -20.7646 0.0000 -7.5345 34.5469 1.4740 5.5782 0.0000 -24.0622 -35.9605 -1.4830 -0.6733 -0.0000 16.0514 -0.0000 -0.2902 -35.9107 0.7486 0.8386 -0.0000 -29.2239 29.1807 12.0133 1.7423 0.0000
 -46.5777 -6.3421 36.6322 0.2271 -3.9062 2.0338 5.6699 4.4554 -0.3467 -0.0000 18.1747 0.0000 0.0000 3.4040 6.2896 0.0000 -27.3133 -0.0000 -9.0671 5.9272 -0.7056 -0.0000 16.4374 0.0000 -0.0000 7.5079 -1.8811 0.0000 -33.2122 -0.0000 -49.6229 -6.2965 42.4702 0.2036 3.0100 1.0472 -50.0737 -6.5308 61.3882 0.2821 10.3048 -1.9953 -20.7646 0.0000 -7.5345 34.5469 1.4740 5.5782 0.0000 -24.0622 -35.9605 -1.4830 -0.6733 -0.0000 16.0514 -0.0000 -0.2902 -35.9107 0.7486 0.8386 -0.0000 -29.2239 29.1807 12.0133 1.7423 0.0000
 -46.5804 -6.3416 36.6299 0.2322 -3.9201 2.0417 5.6687 4.4487 -0.3374 -0.0000 18.2046 0.0000 0.0000 3.3788 6.2701 0.0000 -27.2774 -0.0000 -9.0733 5.9333 -0.6921 -0.0000 16.4548 0.0000 0.0000 7.4738 -1.8862 0.0000 -33.1839 -0.0000 -49.6231 -6.2979 42.4675 0.1844 2.9993 1.0212 -50.0878 -6.5229 61.4081 0.2977 10.7314 -2.0718 -20.7658 0.0000 -7.5427 34.5583 1.4758 5.5154 0.0000 -24.0258 -35.8766 -1.5481 -0.6267 0.0000 16.0484 -0.0000 -0.2810 -35.8991 0.7450 0.8800 -0.0000 -29.1866 29.1904 12.1260 1.8212 0.0000
 -46.5804 -6.3416 36.6299 0.2322 -3.9201 2.0417 5.6687 4.4487 -0.3374 -0.0000 18.2046 0.0000 0.0000 3.3788 6.2701 0.0000 -27.2774 -0.0000 -9.0733 5.9333 -0.6921 -0.0000 16.4548 0.0000 0.0000 7.4738 -1.8862 0.0000 -33.1839 -0.0000 -49.6231 -6.2979 42.4675 0.1844 2.9993 1.0212 -50.0878 -6.5229 61.4081 0.2977 10.7314 -2.0718 -20.7658 0.0000 -7.5427 34.5583 1.4758 5.5154 0.0000 -24.0258 -35.8766 -1.5481 -0.6267 0.0000 16.0484 -0.0000 -0.2810 -35.8991 0.7450 0.8800 -0.0000 -29.1866 29.1904 12.1260 1.8212 0.0000
 -46.5830 -6.3405 36.6283 0.2361 -3.9367 2.0600 5.6625 4.4333 -0.3616 -0.0000 18.2538 0.0000 -0.0000 3.3886 6.2852 0.0000 -27.3497 -0.0000 -9.0834 5.9454 -0.7094 -0.0000 16.4706 0.0000 -0.0000 7.4363 -1.8699 0.0000 -33.1424 -0.0000 -49.6184 -6.3018 42.4669 0.1562 2.9845 0.9977 -50.1104 -6.5137 61.4340 0.3303 11.2253 -2.1315 -20.7905 0.0000 -7.5453 34.5854 1.4843 5.4956 0.0000 -23.9944 -35.9332 -1.4648 -0.6387 -0.0000 16.0483 -0.0000 -0.2776 -35.8493 0.7764 0.8579 0.0000 -29.1208 29.1631 11.9856 1.7138 0.0000
 -46.5830 -6.3405 36.6283 0.2361 -3.9367 2.0600 5.6625 4.4333 -0.3616 -0.0000 18.2538 0.0000 -0.0000 3.3886 6.2852 0.0000 -27.3497 -0.0000 -9.0834 5.9454 -0.7094 -0.0000 16.4706 0.0000 -0.0000 7.4363 -1.8699 0.0000 -33.1424 -0.0000 -49.6184 -6.3018 42.4669 0.1562 2.9845 0.9977 -50.1104 -6.5137 61.4340 0.3303 11.2253 -2.1315 -20.7905 0.0000 -7.5453 34.5854 1.4843 5.4956 0.0000 -23.9944 -35.9332 -1.4648 -0.6387 -0.0000 16.0483 -0.0000 -0.2776 -35.8493 0.7764 0.8579 0.0000 -29.1208 29.1631 11.9856 1.7138 0.0000
 -46.5857 -6.3392 36.6278 0.2402 -3.9525 2.0726 5.6561 4.4252 -0.3622 -0.0000 18.2846 0.0000 -0.0000 3.3943 6.2950 0.0000 -27.3405 -0.0000 -9.0864 5.9461 -0.6977 -0.0000 16.4961 0.0000 0.0000 7.4480 -1.8899 0.0000 -33.1511 -0.0000 -49.6161 -6.3044 42.4647 0.1347 2.9679 0.9627 -50.1213 -6.5050 61.4511 0.3674 11.6042 -2.1810 -20.8088 0.0000 -7.5500 34.6118 1.4879 5.4807 0.0000 -23.9607 -35.9726 -1.5263 -0.6447 0.0000 16.0482 -0.0000 -0.2816 -35.8161 0.7657 0.8341 -0.0000 -29.0965 29.1895 12.1479 1.8271 0.0000
 -46.5857 -6.3392 36.6278 0.2402 -3.9525 2.0726 5.6561 4.4252 -0.3622 -0.0000 18.2846 0.0000 -0.0000 3.3943 6.2950 0.0000 -27.3405 -0.0000 -9.0864 5.9461 -0.6977 -0.0000 16.4961 0.0000 0.0000 7.4480 -1.8899 0.0000 -33.1511 -0.0000 -49.6161 -6.3044 42.4647 0.1347 2.9679 0.9627 -50.1213 -6.5050 61.4511 0.3674 11.6042 -2.1810 -20.8088 0.0000 -7.5500 34.6118 1.4879 5.4807 0.0000 -23.9607 -35.9726 -1.5263 -0.6447 0.0000 16.0482 -0.0000 -0.2816 -35.8161 0.7657 0.8341 -0.0000 -29.0965 29.1895 12.1479 1.8271 0.0000
 -46.5859 -6.3395 36.6254 0.2401 -3.9638 2.0681 5.6455 4.4148 -0.4196 -0.0000 18.3339 0.0000 0.0000 3.3594 6.3463 0.0000 -27.3104 -0.0000 -9.0871 5.9460 -0.6850 -0.0000 16.5134 0.0000 0.0000 7.4384 -1.8812 0.0000 -33.1712 -0.0000 -49.6143 -6.3050 42.4628 0.1168 2.9554 0.9518 -50.1261 -6.4925 61.4617 0.3747 11.8812 -2.3086 -20.8241 0.0000 -7.5455 34.6214 1.4831 5.4705 -0.0000 -23.9603 -36.0043 -1.5926 -0.7328 0.0000 16.0537 -0.0000 -0.2886 -35.7876 0.7638 0.8073 0.0000 -29.0763 29.1939 12.2299 1.8989 0.0000
 -46.5859 -6.3395 36.6254 0.2401 -3.9638 2.0681 5.6455 4.4148 -0.4196 -0.0000 18.3339 0.0000 0.0000 3.3594 6.3463 0.0000 -27.3104 -0.0000 -9.0871 5.9460 -0.6850 -0.0000 16.5134 0.0000 0.0000 7.4384 -1.8812 0.0000 -33.1712 -0.0000 -49.6143 -6.3050 42.4628 0.1168 2.9554 0.9518 -50.1261 -6.4925 61.4617 0.3747 11.8812 -2.3086 -20.8241 0.0000 -7.5455 34.6214 1.4831 5.4705 -0.0000 -23.9603 -36.0043 -1.5926 -0.7328 0.0000 16.0537 -0.0000 -0.2886 -35.7876 0.7638 0.8073 0.0000 -29.0763 29.1939 12.2299 1.8989 0.0000
 -46.5875 -6.3397 36.6235 0.2430 -3.9739 2.0609 5.6347 4.4055 -0.4460 -0.0000 18.3654 0.0000 0.0000 3.3457 6.3902 0.0000 -27.3494 -0.0000 -9.0846 5.9414 -0.6507 -0.0000 16.5300 0.0000 -0.0000 7.4422 -1.9233 0.0000 -33.2455 -0.0000 -49.6146 -6.3052 42.4612 0.1048 2.9543 0.9434 -50.1294 -6.4832 61.4714 0.3444 12.1405 -2.3970 -20.8351 0.0000 -7.5476 34.6164 1.4745 5.4302 0.0000 -23.9486 -36.0263 -1.6078 -0.6992 -0.0000 16.0626 -0.0000 -0.2868 -35.7750 0.7667 0.7870 -0.0000 -29.0807 29.1878 12.2564 1.9186 0.0000
 -46.5884 -6.3395 36.6233 0.2426 -3.9744 2.0606 5.6351 4.4046 -0.4498 -0.0000 18.3682 0.0000 0.0000 3.3422 6.4020 0.0000 -27.3266 -0.0000 -9.0873 5.9417 -0.6384 -0.0000 16.5358 0.0000 0.0000 7.4351 -1.9096 0.0000 -33.2376 -0.0000 -49.6158 -6.3049 42.4609 0.1017 2.9569 0.9409 -50.1229 -6.4796 61.4723 0.3413 12.1996 -2.4040 -20.8406 0.0000 -7.5470 34.6084 1.4723 5.4244 0.0000 -23.9585 -36.0013 -1.5302 -0.7949 -0.0000 16.0659 -0.0000 -0.2901 -35.7713 0.7681 0.7811 -0.0000 -29.0942 29.1917 12.2167 1.8502 0.0000
 -46.5884 -6.3395 36.6233 0.2426 -3.9744 2.0606 5.6351 4.4046 -0.4498 -0.0000 18.3682 0.0000 0.0000 3.3422 6.4020 0.0000 -27.3266 -0.0000 -9.0873 5.9417 -0.6384 -0.0000 16.5358 0.0000 0.0000 7.4351 -1.9096 0.0000 -33.2376 -0.0000 -49.6158 -6.3049 42.4609 0.1017 2.9569 0.9409 -50.1229 -6.4796 61.4723 0.3413 12.1996 -2.4040 -20.8406 0.0000 -7.5470 34.6084 1.4723 5.4244 0.0000 -23.9585 -36.0013 -1.5302 -0.7949 -0.0000 16.0659 -0.0000 -0.2901 -35.7713 0.7681 0.7811 -0.0000 -29.0942 29.1917 12.2167 1.8502 0.0000
 -46.5900 -6.3397 36.6204 0.2454 -3.9849 2.0622 5.6254 4.3964 -0.4906 -0.0000 18.4032 0.0000 0.0000 3.2958 6.4331 0.0000 -27.2800 -0.0000 -9.0814 5.9286 -0.5938 -0.0000 16.5804 0.0000 0.0000 7.4090 -1.9758 0.0000 -33.2322 -0.0000 -49.6175 -6.3040 42.4591 0.0907 2.9716 0.9382 -50.1223 -6.4700 61.4801 0.3524 12.4238 -2.3782 -20.8443 0.0000 -7.5545 34.5923 1.4582 5.3822 0.0000 -23.9759 -35.8792 -1.5553 -0.7510 -0.0000 16.0708 -0.0000 -0.3006 -35.7590 0.7852 0.7473 -0.0000 -29.1516 29.2346 12.3280 1.8493 -0.0000
 -46.5900 -6.3397 36.6204 0.2454 -3.9849 2.0622 5.6254 4.3964 -0.4906 -0.0000 18.4032 0.0000 0.0000 3.2958 6.4331 0.0000 -27.2800 -0.0000 -9.0814 5.9286 -0.5938 -0.0000 16.5804 0.0000 0.0000 7.4090 -1.9758 0.0000 -33.2322 -0.0000 -49.6175 -6.3040 42.4591 0.0907 2.9716 0.9382 -50.1223 -6.4700 61.4801 0.3524 12.4238 -2.3782 -20.8443 0.0000 -7.5545 34.5923 1.4582 5.3822 0.0000 -23.9759 -35.8792 -1.5553 -0.7510 -0.0000 16.0708 -0.0000 -0.3006 -35.7590 0.7852 0.7473 -0.0000 -29.1516 29.2346 12.3280 1.8493 -0.0000
 -46.5925 -6.3398 36.6182 0.2453 -4.0016 2.0475 5.6138 4.3855 -0.5493 -0.0000 18.4630 0.0000 -0.0000 3.2919 6.5022 0.0000 -27.3119 -0.0000 -9.0826 5.9112 -0.5826 -0.0000 16.6357 0.0000 0.0000 7.3988 -1.9697 0.0000 -33.2292 -0.0000 -49.6216 -6.3029 42.4567 0.0818 2.9969 0.9382 -50.1297 -6.4651 61.4850 0.2641 12.5532 -2.5791 -20.8412 0.0000 -7.5615 34.5608 1.4540 5.3561 0.0000 -24.0351 -35.7556 -1.6036 -0.8462 -0.0000 16.0744 -0.0000 -0.2868 -35.7581 0.7852 0.7899 -0.0000 -29.1678 29.1963 12.2349 1.7777 -0.0000
 -46.5925 -6.3398 36.6182 0.2453 -4.0016 2.0475 5.6138 4.3855 -0.5493 -0.0000 18.4630 0.0000 -0.0000 3.2919 6.5022 0.0000 -27.3119 -0.0000 -9.0826 5.9112 -0.5826 -0.0000 16.6357 0.0000 0.0000 7.3988 -1.9697 0.0000 -33.2292 -0.0000 -49.6216 -6.3029 42.4567 0.0818 2.9969 0.9382 -50.1297 -6.4651 61.4850 0.2641 12.5532 -2.5791 -20.8412 0.0000 -7.5615 34.5608 1.4540 5.3561 0.0000 -24.0351 -35.7556 -1.6036 -0.8462 -0.0000 16.0744 -0.0000 -0.2868 -35.7581 0.7852 0.7899 -0.0000 -29.1678 29.1963 12.2349 1.7777 -0.0000
 -46.5923 -6.3395 36.6149 0.2443 -4.0172 2.0267 5.6074 4.3813 -0.5635 -0.0000 18.5111 0.0000 -0.0000 3.2619 6.5358 0.0000 -27.3173 -0.0000 -9.0865 5.8900 -0.5510 -0.0000 16.6930 0.0000 -0.0000 7.3605 -1.9951 0.0000 -33.2150 -0.0000 -49.6238 -6.3002 42.4544 0.0748 3.0193 0.9290 -50.1244 -6.4547 61.4834 0.2770 12.6405 -2.5435 -20.8334 0.0000 -7.5542 34.5316 1.4672 5.3196 0.0000 -24.0772 -35.7125 -1.5373 -0.8835 0.0000 16.0753 -0.0000 -0.2923 -35.7540 0.7682 0.8414 -0.0000 -29.1981 29.2275 12.2769 1.8485 0.0000
 -46.5940 -6.3410 36.6135 0.2481 -4.0451 2.0072 5.6125 4.3857 -0.5094 -0.0000 18.5568 0.0000 0.0000 3.2398 6.5090 0.0000 -27.2895 -0.0000 -9.1028 5.8608 -0.6289 -0.0000 16.7942 0.0000 0.0000 7.2843 -1.8852 0.0000 -33.1188 -0.0000 -49.6265 -6.3018 42.4522 0.0598 3.0715 0.9601 -50.1208 -6.4562 61.4829 0.2211 12.6694 -2.5500 -20.8232 0.0000 -7.5420 34.5127 1.4550 5.2798 0.0000 -24.1459 -35.7042 -1.6397 -0.9229 -0.0000 16.0760 -0.0000 -0.2667 -35.7445 0.8200 0.8319 -0.0000 -29.2788 29.2350 12.2814 1.8235 0.0000
 -46.5933 -6.3406 36.6121 0.2465 -4.0500 1.9999 5.6095 4.3836 -0.5237 -0.0000 18.5693 0.0000 0.0000 3.2433 6.5257 0.0000 -27.3442 -0.0000 -9.1032 5.8577 -0.6180 -0.0000 16.8066 0.0000 0.0000 7.3084 -1.8984 0.0000 -33.2097 -0.0000 -49.6270 -6.3006 42.4503 0.0553 3.0690 0.9568 -50.1165 -6.4506 61.4830 0.2215 12.7129 -2.5736 -20.8279 0.0000 -7.5445 34.5072 1.4493 5.2738 0.0000 -24.1489 -35.6933 -1.6861 -0.8485 -0.0000 16.0776 -0.0000 -0.2639 -35.7432 0.8148 0.8348 -0.0000 -29.2799 29.2538 12.4231 1.8826 -0.0000
 -46.5927 -6.3403 36.6109 0.2458 -4.0566 1.9912 5.6053 4.3823 -0.5316 -0.0000 18.5884 0.0000 0.0000 3.2382 6.5440 0.0000 -27.3439 -0.0000 -9.1015 5.8506 -0.5895 -0.0000 16.8294 0.0000 0.0000 7.3117 -1.9201 0.0000 -33.2413 -0.0000 -49.6272 -6.2993 42.4484 0.0494 3.0687 0.9513 -50.1132 -6.4455 61.4824 0.2410 12.7454 -2.5517 -20.8347 0.0000 -7.5480 34.4995 1.4476 5.2667 0.0000 -24.1510 -35.7196 -1.6287 -0.8199 -0.0000 16.0792 -0.0000 -0.2623 -35.7414 0.8058 0.8571 -0.0000 -29.2745 29.2106 12.3891 1.7987 -0.0000
